<?xml version="1.0" standalone="no"?><!DOCTYPE svg PUBLIC "-//W3C//DTD SVG 1.1//EN" "http://www.w3.org/Graphics/SVG/1.1/DTD/svg11.dtd"><svg t="1556076129412" class="icon" style="" viewBox="0 0 1024 1024" version="1.1" xmlns="http://www.w3.org/2000/svg" p-id="4844" xmlns:xlink="http://www.w3.org/1999/xlink" width="16" height="16"><defs><style type="text/css"></style></defs><path d="M0 0h1024v1024H0z" fill-opacity="0" p-id="4845"></path><path d="M810.666667 379.733333v490.666667c0 17.066667-12.8 29.866667-29.866667 29.866667H243.2c-17.066667-4.266667-29.866667-17.066667-29.866667-34.133334V157.866667c0-17.066667 12.8-29.866667 29.866667-29.866667h324.266667c17.066667 0 29.866667 8.533333 42.666666 17.066667l187.733334 187.733333c4.266667 12.8 12.8 29.866667 12.8 46.933333z" fill="#C4CBEF" p-id="4846"></path><path d="M810.666667 379.733333h-247.466667V128c17.066667 0 29.866667 8.533333 42.666667 17.066667l187.733333 187.733333c8.533333 12.8 17.066667 29.866667 17.066667 46.933333z" fill="#9DAAE4" p-id="4847"></path></svg>